<?xml version="1.0" encoding="utf-8"?>
<!-- Generator: Adobe Illustrator 24.3.0, SVG Export Plug-In . SVG Version: 6.00 Build 0)  -->
<svg version="1.1" id="Calque_1" xmlns="http://www.w3.org/2000/svg" xmlns:xlink="http://www.w3.org/1999/xlink" x="0px" y="0px"
	 viewBox="0 0 76.09 74.33" style="enable-background:new 0 0 76.09 74.33;" xml:space="preserve">
<style type="text/css">
	.st0{fill:#FFFFFF;}
	.st1{fill:none;stroke:#544F9D;stroke-miterlimit:10;}
	.st2{fill:#FFFFFF;stroke:#FFFFFF;stroke-width:0.25;stroke-miterlimit:10;}
	.st3{fill:#E69620;}
</style>
<g>
	<path class="st0" d="M11.04,50.84l-3.35,4.36c-0.36,0.47-0.44,1.09-0.2,1.64l4.65,10.72c0.24,0.56,0.78,0.94,1.39,0.97l5.22,0.33
		c0,0,2.36,3.23,2.99,3.3c0.63,0.08,3.78-1.49,3.78-1.49s0.24-1.18,0-1.73c-0.24-0.55,1.34,0.16,3.46-1.18
		c2.12-1.34,1.18-3.07,1.18-3.07L20.8,43.84c0,0-1.42-1.18-2.83-0.94c-1.42,0.24-3.3,2.67-3.3,2.67l-2.36-2.05
		c0,0-0.3,0.1-0.36-0.03c-0.04-0.1-0.62-1.06-0.93-1.6c-0.12-0.2-0.51-0.17-0.82,0c-0.14,0.07-0.4,0.3-0.35,0.57
		c0.13,0.71,0.49,1.72,0.49,1.72l-0.05,2.53l0.11,0.24L11.04,50.84z"/>
	<path class="st1" d="M10.29,41.84l-0.29-1c0,0,1.98-1.45,1.73-1.6c-0.25-0.15-3.9-1.14-3.81-1.66c0.08-0.52,3-1.15,2.85-1.47
		c-0.15-0.32-3.75-1.47-3.77-2.18"/>
	<path class="st0" d="M62.87,50.84l3.35,4.36c0.36,0.47,0.44,1.09,0.2,1.64l-4.65,10.72c-0.24,0.56-0.78,0.94-1.39,0.97l-5.22,0.33
		c0,0-2.36,3.23-2.99,3.3c-0.63,0.08-3.78-1.49-3.78-1.49s-0.24-1.18,0-1.73c0.24-0.55-1.34,0.16-3.46-1.18
		c-2.12-1.34-1.18-3.07-1.18-3.07l9.36-20.85c0,0,1.42-1.18,2.83-0.94c1.42,0.24,3.3,2.67,3.3,2.67l2.36-2.05c0,0,0.3,0.1,0.36-0.03
		c0.04-0.1,0.62-1.06,0.93-1.6c0.12-0.2,0.51-0.17,0.82,0c0.14,0.07,0.4,0.3,0.35,0.57c-0.13,0.71-0.49,1.72-0.49,1.72l0.05,2.53
		l-0.11,0.24L62.87,50.84z"/>
	<path class="st1" d="M63.63,41.84l0.29-1c0,0-1.98-1.45-1.73-1.6s3.9-1.14,3.81-1.66c-0.08-0.52-3-1.15-2.85-1.47
		c0.15-0.32,3.75-1.47,3.77-2.18"/>
	<path class="st2" d="M10.27,46.71c0,0-3.16-2.5-4.69-4.11c-0.48-0.51-0.62-1.13-0.52-1.6c0.41-2.07,1.55-1.78,1.43-6.54
		c-0.02-0.68,1.71-0.52,1.58-1.89c-0.13-1.37-0.49-6.66,0.66-10.42c4.86-15.85,20.74-16.1,28.23-16.1s23.37,0.25,28.23,16.1
		c1.15,3.76,0.79,9.04,0.66,10.42s1.59,1.21,1.58,1.89c-0.12,4.76,1.01,4.47,1.43,6.54c0.09,0.47-0.04,1.1-0.52,1.6
		c-1.53,1.61-4.69,4.11-4.69,4.11l-0.11,0.24l-0.49,2.87c0,0,6.29-4.82,7.49-7.25c0.29-0.59,0.16-1.25,0.12-1.44
		c-0.35-1.61-1.33-2.99-1.17-7.67c0.18-5.24,0.74-12.99-3.91-19.41C56.58,1.64,40.5,2.5,36.96,2.5S17.34,1.64,8.33,14.05
		c-4.65,6.41-4.09,14.17-3.91,19.41c0.16,4.67-0.82,6.06-1.17,7.67c-0.04,0.19-0.17,0.85,0.12,1.44c1.2,2.44,7.49,7.25,7.49,7.25
		l-0.49-2.87L10.27,46.71z"/>
</g>
<g>
	<path class="st3" d="M28.84,47.71c-0.13,0-0.19-0.08-0.19-0.24l0.05-33.21c0-0.13,0.06-0.19,0.19-0.19h15.52
		c0.13,0,0.19,0.08,0.19,0.24v5.41c0,0.13-0.06,0.19-0.19,0.19H34.5v7.54h9.91c0.13,0,0.19,0.06,0.19,0.19l0.05,5.46
		c0,0.13-0.06,0.19-0.19,0.19H34.5v8.46h9.96c0.13,0,0.19,0.08,0.19,0.24v5.51c0,0.13-0.06,0.19-0.19,0.19H28.84z"/>
</g>
</svg>
